# xmcd
#
# Track frame offsets:
#	150
#	7443
#	17350
#	21098
#	26885
#	29233
#	38975
#	45450
#	49880
#	59105
#	75435
#	88030
#	92343
#	103798
#	117638
#	141655
#	212412
#	268952
#
# Disc length: 4230 seconds
#
# Revision: 1
# Processed by: cddbd v1.5.2PL0 Copyright (c) Steve Scherf et al.
# Submitted via: audiograbber 1.83.01
#
DISCID=07108412
DTITLE=Elgar - Stanford - Enigma Variations - Piano-Concert # 2
DYEAR=1900
DGENRE=
TTITLE0=Variation 1 - Alice
TTITLE1=Variation 2 - Hew David Stewart-Powell 
TTITLE2=Variation 3 - Richard Baxter Townsend
TTITLE3=Variation 4 - William Meath Baker, 
TTITLE4=Variation 5 - Richard Arnold
TTITLE5=Variation 6 - Ysobel Fitton 
TTITLE6=Variation 7 - Arthur Troyte Griffith.
TTITLE7=Variation 8 - Winifred Norbury,
TTITLE8=Variation 9 - August Jaeger
TTITLE9=Variation 10 - Dorabella Penny
TTITLE10=Variation 11 - Dr. George Robertson Sinclair
TTITLE11=Variation 12 - Basil Nevinson.
TTITLE12=Variation 13 - Zitat Mendelssohn-Bartholdy
TTITLE13=Variation 14 - Selbstportrait Edw. Elgar
TTITLE14=Stanford - Piano-Concerto # 2 a
TTITLE15=Stanford - Piano Concerto # 2 b
TTITLE16=Stanford - Piano Concertto # 2 c
TTITLE17=Stanford - Piano Concerto # 2 d
EXTD=
EXTT0=
EXTT1=
EXTT2=
EXTT3=
EXTT4=
EXTT5=
EXTT6=
EXTT7=
EXTT8=
EXTT9=
EXTT10=
EXTT11=
EXTT12=
EXTT13=
EXTT14=
EXTT15=
EXTT16=
EXTT17=
PLAYORDER=
